<svg xmlns="http://www.w3.org/2000/svg" width="726" height="730" viewBox="0 0 726 730" version="1.1"><path d="M 155.500 8.715 C 138.401 11.079, 125.333 20.302, 116.022 36.577 C 110.604 46.045, 109.117 50.418, 107.910 60.435 C 107.299 65.507, 107.044 154.980, 107.224 301.500 L 107.510 534.500 109.611 541.213 C 110.766 544.905, 113.238 550.503, 115.105 553.652 C 119.358 560.826, 131.076 573.374, 136.479 576.541 C 146.629 582.489, 146.101 582.427, 191 582.984 L 232.500 583.500 233 645.001 L 233.500 706.502 236.378 711.050 C 241.905 719.784, 251.757 723.483, 263.197 721.120 C 270.237 719.666, 273.777 717.497, 277.752 712.199 C 280.950 707.937, 314.385 666.776, 322.997 656.500 C 330.005 648.137, 339.578 636.530, 346.642 627.832 C 351.259 622.147, 366.505 603.637, 370.814 598.485 C 371.741 597.376, 374.940 593.440, 377.922 589.738 L 383.345 583.005 478.589 583.026 C 536.770 583.038, 575.522 582.667, 578.175 582.073 C 589.395 579.558, 599.480 572.410, 607.978 560.949 C 614.649 551.952, 618.366 542.159, 620.090 529.042 C 620.728 524.182, 620.961 439.171, 620.744 290 C 620.440 81.226, 620.250 57.960, 618.805 53 C 616.496 45.077, 613.042 37.119, 609.858 32.385 C 606.040 26.709, 594.211 15.953, 588.897 13.325 C 577.681 7.778, 586.785 7.987, 363.792 8.150 C 250.881 8.232, 157.150 8.486, 155.500 8.715 M 160.529 58.380 C 159.220 59.689, 157.328 63.177, 156.324 66.130 C 154.583 71.255, 154.488 81.636, 154.241 293.399 C 153.983 514.970, 153.986 515.310, 156.049 522.899 C 159.547 535.765, 153.417 534.417, 211.292 535.043 C 248.209 535.442, 262.520 535.925, 265.351 536.868 C 270.304 538.517, 277.489 545.706, 279.125 550.649 C 280.023 553.363, 280.562 565.721, 280.950 592.500 L 281.500 630.500 283.757 627.336 C 284.999 625.595, 293.015 615.695, 301.572 605.336 C 310.129 594.976, 320.450 582.450, 324.507 577.500 C 328.564 572.550, 335.398 564.275, 339.692 559.112 C 343.986 553.949, 348.731 548.140, 350.236 546.203 C 351.741 544.266, 354.484 541.605, 356.332 540.291 C 363.804 534.974, 362.734 535.025, 468.095 535.012 C 577.078 534.999, 566.502 535.722, 570.629 528 C 572.441 524.610, 572.500 517.305, 572.500 295.500 L 572.500 66.500 570.247 62.283 C 569.007 59.964, 567.125 57.602, 566.062 57.033 C 564.752 56.332, 499.676 56, 363.520 56 L 162.909 56 160.529 58.380 M 290 289.425 L 290 394 315.500 394 L 341 394 341 354.500 L 341 315 360.369 315 C 396.269 315, 416.063 309.031, 431.530 293.541 C 444.157 280.896, 448.419 269.498, 448.371 248.500 C 448.345 237.042, 448.022 234.571, 445.652 227.672 C 438.220 206.043, 423.004 193.962, 394.973 187.435 C 388.570 185.944, 380.518 185.634, 338.750 185.272 L 290 184.850 290 289.425 M 341 250.365 L 341 275 353.750 274.992 C 375.378 274.980, 386.163 272.132, 392.465 264.770 C 396.547 260.001, 398.500 252.823, 397.511 246.228 C 396.601 240.159, 394.931 237.025, 390.565 233.191 C 384.892 228.211, 378.743 226.872, 358.750 226.268 L 341 225.731 341 250.365" stroke="none" fill="#fffcfc" fill-rule="evenodd"/><path d="" stroke="none" fill="#fcfcfc" fill-rule="evenodd"/></svg>